<svg width="740" height="736" viewBox="0 0 740 736" fill="none" xmlns="http://www.w3.org/2000/svg">
<path d="M65 171L1 291L17 323V433L1 497L29 545L87 587L131 645L197 695L275 735H327L403 725L459 735L515 725L567 695L699 527L739 463V387L727 323L713 253V223L699 171L685 151L603 79L535 25L501 1H459L393 11L327 25L287 11H259L223 25L169 57L65 171Z" fill="#D9D9D9"/>
<path d="M240 239L156 303H130L118 263L130 201L140 171L156 143L188 123L254 111L292 123L328 143V171L306 213L240 239Z" fill="#6B6B6B"/>
<path d="M448 261L468 189L494 159H518L554 189L580 261L598 327L554 405H518L480 371L458 315L448 261Z" fill="#6B6B6B"/>
<path d="M354 547L302 527H270L240 557V601L292 639L344 651H402L446 639H486L500 601H486L470 579H412L354 547Z" fill="#6B6B6B"/>
<path d="M317 363L289 353L317 319L329 303H367L399 319L413 363L383 399H349L317 363Z" fill="#6B6B6B"/>
<path d="M470 507L438 493L460 459L518 439L534 459L518 493L508 527L470 507Z" fill="#6B6B6B"/>
<path d="M652 427L608 481V491H630L662 481L676 459L688 427L676 411L652 427Z" fill="#6B6B6B"/>
<path d="M156 473V523H144L116 489L104 461V425L116 399L144 409L168 443L156 473Z" fill="#6B6B6B"/>
<path d="M65 171L1 291L17 323V433L1 497L29 545L87 587L131 645L197 695L275 735H327L403 725L459 735L515 725L567 695L699 527L739 463V387L727 323L713 253V223L699 171L685 151L603 79L535 25L501 1H459L393 11L327 25L287 11H259L223 25L169 57L65 171Z" stroke="black"/>
<path d="M240 239L156 303H130L118 263L130 201L140 171L156 143L188 123L254 111L292 123L328 143V171L306 213L240 239Z" stroke="black"/>
<path d="M448 261L468 189L494 159H518L554 189L580 261L598 327L554 405H518L480 371L458 315L448 261Z" stroke="black"/>
<path d="M354 547L302 527H270L240 557V601L292 639L344 651H402L446 639H486L500 601H486L470 579H412L354 547Z" stroke="black"/>
<path d="M317 363L289 353L317 319L329 303H367L399 319L413 363L383 399H349L317 363Z" stroke="black"/>
<path d="M470 507L438 493L460 459L518 439L534 459L518 493L508 527L470 507Z" stroke="black"/>
<path d="M652 427L608 481V491H630L662 481L676 459L688 427L676 411L652 427Z" stroke="black"/>
<path d="M156 473V523H144L116 489L104 461V425L116 399L144 409L168 443L156 473Z" stroke="black"/>
</svg>
