<svg width="502" height="502" viewBox="0 0 502 502" fill="none" xmlns="http://www.w3.org/2000/svg">
<path d="M501 251C501 389.071 389.071 501 251 501C112.929 501 1 389.071 1 251C1 112.929 112.929 1 251 1C389.071 1 501 112.929 501 251Z" fill="#FF7801"/>
<path d="M128 240C112 224 37.3333 227.333 2 231C2 227.333 3.4 220 9 220C16 220 38 214 77 206C116 198 138 220 194 193C250 166 257 224 369 220C458.6 216.8 479.667 232 479 240C469 240 444 242 424 250C399 260 326 285 329 261C332 237 284 240 224 250C164 260 148 260 128 240Z" fill="#A62323"/>
<path d="M356 399.971C383.2 430.371 435.333 405.305 458 388.971L479 353.971C469 359.971 446.4 375.371 436 388.971C423 405.971 408 399.971 386 399.971C364 399.971 384 380.971 361 376.971C338 372.971 330 353.971 317 340.971C304 327.971 290 337.971 268 353.971C246 369.971 234 371.971 223 399.971C212 427.971 184 411.971 170 411.971C158.8 411.971 127.333 385.305 113 371.971C124.667 385.638 152.4 415.971 170 427.971C192 442.971 235 417.971 256 388.971C277 359.971 322 361.971 356 399.971Z" fill="#A62323"/>
<path d="M501 251C501 389.071 389.071 501 251 501C112.929 501 1 389.071 1 251C1 112.929 112.929 1 251 1C389.071 1 501 112.929 501 251Z" stroke="#A62323"/>
<path d="M128 240C112 224 37.3333 227.333 2 231C2 227.333 3.4 220 9 220C16 220 38 214 77 206C116 198 138 220 194 193C250 166 257 224 369 220C458.6 216.8 479.667 232 479 240C469 240 444 242 424 250C399 260 326 285 329 261C332 237 284 240 224 250C164 260 148 260 128 240Z" stroke="#A62323"/>
<path d="M356 399.971C383.2 430.371 435.333 405.305 458 388.971L479 353.971C469 359.971 446.4 375.371 436 388.971C423 405.971 408 399.971 386 399.971C364 399.971 384 380.971 361 376.971C338 372.971 330 353.971 317 340.971C304 327.971 290 337.971 268 353.971C246 369.971 234 371.971 223 399.971C212 427.971 184 411.971 170 411.971C158.8 411.971 127.333 385.305 113 371.971C124.667 385.638 152.4 415.971 170 427.971C192 442.971 235 417.971 256 388.971C277 359.971 322 361.971 356 399.971Z" stroke="#A62323"/>
</svg>
