<svg width="500" height="500" viewBox="0 0 500 500" fill="none" xmlns="http://www.w3.org/2000/svg">
<mask id="path-1-inside-1_174_112" fill="white">
<path d="M500 250C500 388.071 388.071 500 250 500C111.929 500 0 388.071 0 250C0 111.929 111.929 0 250 0C388.071 0 500 111.929 500 250Z"/>
<path d="M351 323C351 329.075 346.971 334 342 334C337.029 334 333 329.075 333 323C333 316.925 337.029 312 342 312C346.971 312 351 316.925 351 323Z"/>
<path d="M333 87C333 93.0751 328.971 98 324 98C319.029 98 315 93.0751 315 87C315 80.9249 319.029 76 324 76C328.971 76 333 80.9249 333 87Z"/>
<path d="M137 134C137 140.075 132.971 145 128 145C123.029 145 119 140.075 119 134C119 127.925 123.029 123 128 123C132.971 123 137 127.925 137 134Z"/>
<path d="M307 420C307 426.075 302.971 431 298 431C293.029 431 289 426.075 289 420C289 413.925 293.029 409 298 409C302.971 409 307 413.925 307 420Z"/>
<path d="M443 334C443 340.075 438.971 345 434 345C429.029 345 425 340.075 425 334C425 327.925 429.029 323 434 323C438.971 323 443 327.925 443 334Z"/>
<path d="M137 312C137 318.075 132.971 323 128 323C123.029 323 119 318.075 119 312C119 305.925 123.029 301 128 301C132.971 301 137 305.925 137 312Z"/>
<path d="M419 227C419 233.075 414.971 238 410 238C405.029 238 401 233.075 401 227C401 220.925 405.029 216 410 216C414.971 216 419 220.925 419 227Z"/>
<path d="M268 123C268 129.075 263.971 134 259 134C254.029 134 250 129.075 250 123C250 116.925 254.029 112 259 112C263.971 112 268 116.925 268 123Z"/>
<path d="M173 409C173 415.075 168.971 420 164 420C159.029 420 155 415.075 155 409C155 402.925 159.029 398 164 398C168.971 398 173 402.925 173 409Z"/>
<path d="M191 185C191 191.075 186.971 196 182 196C177.029 196 173 191.075 173 185C173 178.925 177.029 174 182 174C186.971 174 191 178.925 191 185Z"/>
<path d="M342 185C342 191.075 337.971 196 333 196C328.029 196 324 191.075 324 185C324 178.925 328.029 174 333 174C337.971 174 342 178.925 342 185Z"/>
<path d="M173 262C173 268.075 168.971 273 164 273C159.029 273 155 268.075 155 262C155 255.925 159.029 251 164 251C168.971 251 173 255.925 173 262Z"/>
<path d="M289 240C289 246.075 284.971 251 280 251C275.029 251 271 246.075 271 240C271 233.925 275.029 229 280 229C284.971 229 289 233.925 289 240Z"/>
<path d="M259 334C259 340.075 254.971 345 250 345C245.029 345 241 340.075 241 334C241 327.925 245.029 323 250 323C254.971 323 259 327.925 259 334Z"/>
<path d="M318 320C318 326.075 313.971 331 309 331C304.029 331 300 326.075 300 320C300 313.925 304.029 309 309 309C313.971 309 318 313.925 318 320Z"/>
<path d="M300 84C300 90.0751 295.971 95 291 95C286.029 95 282 90.0751 282 84C282 77.9249 286.029 73 291 73C295.971 73 300 77.9249 300 84Z"/>
<path d="M274 417C274 423.075 269.971 428 265 428C260.029 428 256 423.075 256 417C256 410.925 260.029 406 265 406C269.971 406 274 410.925 274 417Z"/>
<path d="M410 331C410 337.075 405.971 342 401 342C396.029 342 392 337.075 392 331C392 324.925 396.029 320 401 320C405.971 320 410 324.925 410 331Z"/>
<path d="M104 309C104 315.075 99.9706 320 95 320C90.0294 320 86 315.075 86 309C86 302.925 90.0294 298 95 298C99.9706 298 104 302.925 104 309Z"/>
<path d="M386 224C386 230.075 381.971 235 377 235C372.029 235 368 230.075 368 224C368 217.925 372.029 213 377 213C381.971 213 386 217.925 386 224Z"/>
<path d="M235 120C235 126.075 230.971 131 226 131C221.029 131 217 126.075 217 120C217 113.925 221.029 109 226 109C230.971 109 235 113.925 235 120Z"/>
<path d="M140 406C140 412.075 135.971 417 131 417C126.029 417 122 412.075 122 406C122 399.925 126.029 395 131 395C135.971 395 140 399.925 140 406Z"/>
<path d="M158 182C158 188.075 153.971 193 149 193C144.029 193 140 188.075 140 182C140 175.925 144.029 171 149 171C153.971 171 158 175.925 158 182Z"/>
<path d="M309 182C309 188.075 304.971 193 300 193C295.029 193 291 188.075 291 182C291 175.925 295.029 171 300 171C304.971 171 309 175.925 309 182Z"/>
<path d="M140 259C140 265.075 135.971 270 131 270C126.029 270 122 265.075 122 259C122 252.925 126.029 248 131 248C135.971 248 140 252.925 140 259Z"/>
<path d="M256 237C256 243.075 251.971 248 247 248C242.029 248 238 243.075 238 237C238 230.925 242.029 226 247 226C251.971 226 256 230.925 256 237Z"/>
<path d="M226 331C226 337.075 221.971 342 217 342C212.029 342 208 337.075 208 331C208 324.925 212.029 320 217 320C221.971 320 226 324.925 226 331Z"/>
<path d="M287 287C287 293.075 282.971 298 278 298C273.029 298 269 293.075 269 287C269 280.925 273.029 276 278 276C282.971 276 287 280.925 287 287Z"/>
<path d="M269 51C269 57.0751 264.971 62 260 62C255.029 62 251 57.0751 251 51C251 44.9249 255.029 40 260 40C264.971 40 269 44.9249 269 51Z"/>
<path d="M243 384C243 390.075 238.971 395 234 395C229.029 395 225 390.075 225 384C225 377.925 229.029 373 234 373C238.971 373 243 377.925 243 384Z"/>
<path d="M379 298C379 304.075 374.971 309 370 309C365.029 309 361 304.075 361 298C361 291.925 365.029 287 370 287C374.971 287 379 291.925 379 298Z"/>
<path d="M73 276C73 282.075 68.9706 287 64 287C59.0294 287 55 282.075 55 276C55 269.925 59.0294 265 64 265C68.9706 265 73 269.925 73 276Z"/>
<path d="M355 191C355 197.075 350.971 202 346 202C341.029 202 337 197.075 337 191C337 184.925 341.029 180 346 180C350.971 180 355 184.925 355 191Z"/>
<path d="M204 87C204 93.0751 199.971 98 195 98C190.029 98 186 93.0751 186 87C186 80.9249 190.029 76 195 76C199.971 76 204 80.9249 204 87Z"/>
<path d="M109 373C109 379.075 104.971 384 100 384C95.0294 384 91 379.075 91 373C91 366.925 95.0294 362 100 362C104.971 362 109 366.925 109 373Z"/>
<path d="M127 149C127 155.075 122.971 160 118 160C113.029 160 109 155.075 109 149C109 142.925 113.029 138 118 138C122.971 138 127 142.925 127 149Z"/>
<path d="M278 149C278 155.075 273.971 160 269 160C264.029 160 260 155.075 260 149C260 142.925 264.029 138 269 138C273.971 138 278 142.925 278 149Z"/>
<path d="M109 226C109 232.075 104.971 237 100 237C95.0294 237 91 232.075 91 226C91 219.925 95.0294 215 100 215C104.971 215 109 219.925 109 226Z"/>
<path d="M225 204C225 210.075 220.971 215 216 215C211.029 215 207 210.075 207 204C207 197.925 211.029 193 216 193C220.971 193 225 197.925 225 204Z"/>
<path d="M195 298C195 304.075 190.971 309 186 309C181.029 309 177 304.075 177 298C177 291.925 181.029 287 186 287C190.971 287 195 291.925 195 298Z"/>
<path d="M372 285C372 291.075 367.971 296 363 296C358.029 296 354 291.075 354 285C354 278.925 358.029 274 363 274C367.971 274 372 278.925 372 285Z"/>
<path d="M354 49C354 55.0751 349.971 60 345 60C340.029 60 336 55.0751 336 49C336 42.9249 340.029 38 345 38C349.971 38 354 42.9249 354 49Z"/>
<path d="M328 382C328 388.075 323.971 393 319 393C314.029 393 310 388.075 310 382C310 375.925 314.029 371 319 371C323.971 371 328 375.925 328 382Z"/>
<path d="M464 296C464 302.075 459.971 307 455 307C450.029 307 446 302.075 446 296C446 289.925 450.029 285 455 285C459.971 285 464 289.925 464 296Z"/>
<path d="M158 274C158 280.075 153.971 285 149 285C144.029 285 140 280.075 140 274C140 267.925 144.029 263 149 263C153.971 263 158 267.925 158 274Z"/>
<path d="M440 189C440 195.075 435.971 200 431 200C426.029 200 422 195.075 422 189C422 182.925 426.029 178 431 178C435.971 178 440 182.925 440 189Z"/>
<path d="M289 85C289 91.0751 284.971 96 280 96C275.029 96 271 91.0751 271 85C271 78.9249 275.029 74 280 74C284.971 74 289 78.9249 289 85Z"/>
<path d="M194 371C194 377.075 189.971 382 185 382C180.029 382 176 377.075 176 371C176 364.925 180.029 360 185 360C189.971 360 194 364.925 194 371Z"/>
<path d="M212 147C212 153.075 207.971 158 203 158C198.029 158 194 153.075 194 147C194 140.925 198.029 136 203 136C207.971 136 212 140.925 212 147Z"/>
<path d="M363 147C363 153.075 358.971 158 354 158C349.029 158 345 153.075 345 147C345 140.925 349.029 136 354 136C358.971 136 363 140.925 363 147Z"/>
<path d="M194 224C194 230.075 189.971 235 185 235C180.029 235 176 230.075 176 224C176 217.925 180.029 213 185 213C189.971 213 194 217.925 194 224Z"/>
<path d="M310 202C310 208.075 305.971 213 301 213C296.029 213 292 208.075 292 202C292 195.925 296.029 191 301 191C305.971 191 310 195.925 310 202Z"/>
<path d="M280 296C280 302.075 275.971 307 271 307C266.029 307 262 302.075 262 296C262 289.925 266.029 285 271 285C275.971 285 280 289.925 280 296Z"/>
<path d="M360 356C360 362.075 355.971 367 351 367C346.029 367 342 362.075 342 356C342 349.925 346.029 345 351 345C355.971 345 360 349.925 360 356Z"/>
<path d="M342 120C342 126.075 337.971 131 333 131C328.029 131 324 126.075 324 120C324 113.925 328.029 109 333 109C337.971 109 342 113.925 342 120Z"/>
<path d="M316 453C316 459.075 311.971 464 307 464C302.029 464 298 459.075 298 453C298 446.925 302.029 442 307 442C311.971 442 316 446.925 316 453Z"/>
<path d="M452 367C452 373.075 447.971 378 443 378C438.029 378 434 373.075 434 367C434 360.925 438.029 356 443 356C447.971 356 452 360.925 452 367Z"/>
<path d="M146 345C146 351.075 141.971 356 137 356C132.029 356 128 351.075 128 345C128 338.925 132.029 334 137 334C141.971 334 146 338.925 146 345Z"/>
<path d="M428 260C428 266.075 423.971 271 419 271C414.029 271 410 266.075 410 260C410 253.925 414.029 249 419 249C423.971 249 428 253.925 428 260Z"/>
<path d="M277 156C277 162.075 272.971 167 268 167C263.029 167 259 162.075 259 156C259 149.925 263.029 145 268 145C272.971 145 277 149.925 277 156Z"/>
<path d="M182 442C182 448.075 177.971 453 173 453C168.029 453 164 448.075 164 442C164 435.925 168.029 431 173 431C177.971 431 182 435.925 182 442Z"/>
<path d="M200 218C200 224.075 195.971 229 191 229C186.029 229 182 224.075 182 218C182 211.925 186.029 207 191 207C195.971 207 200 211.925 200 218Z"/>
<path d="M351 218C351 224.075 346.971 229 342 229C337.029 229 333 224.075 333 218C333 211.925 337.029 207 342 207C346.971 207 351 211.925 351 218Z"/>
<path d="M182 295C182 301.075 177.971 306 173 306C168.029 306 164 301.075 164 295C164 288.925 168.029 284 173 284C177.971 284 182 288.925 182 295Z"/>
<path d="M298 273C298 279.075 293.971 284 289 284C284.029 284 280 279.075 280 273C280 266.925 284.029 262 289 262C293.971 262 298 266.925 298 273Z"/>
<path d="M268 367C268 373.075 263.971 378 259 378C254.029 378 250 373.075 250 367C250 360.925 254.029 356 259 356C263.971 356 268 360.925 268 367Z"/>
</mask>
<path d="M500 250C500 388.071 388.071 500 250 500C111.929 500 0 388.071 0 250C0 111.929 111.929 0 250 0C388.071 0 500 111.929 500 250Z" fill="#8F9496"/>
<path d="M500 250C500 388.071 388.071 500 250 500C111.929 500 0 388.071 0 250C0 111.929 111.929 0 250 0C388.071 0 500 111.929 500 250Z" stroke="#D9D9D9" stroke-width="2" mask="url(#path-1-inside-1_174_112)"/>
<path d="M351 323C351 329.075 346.971 334 342 334C337.029 334 333 329.075 333 323C333 316.925 337.029 312 342 312C346.971 312 351 316.925 351 323Z" stroke="#D9D9D9" stroke-width="2" mask="url(#path-1-inside-1_174_112)"/>
<path d="M333 87C333 93.0751 328.971 98 324 98C319.029 98 315 93.0751 315 87C315 80.9249 319.029 76 324 76C328.971 76 333 80.9249 333 87Z" stroke="#D9D9D9" stroke-width="2" mask="url(#path-1-inside-1_174_112)"/>
<path d="M137 134C137 140.075 132.971 145 128 145C123.029 145 119 140.075 119 134C119 127.925 123.029 123 128 123C132.971 123 137 127.925 137 134Z" stroke="#D9D9D9" stroke-width="2" mask="url(#path-1-inside-1_174_112)"/>
<path d="M307 420C307 426.075 302.971 431 298 431C293.029 431 289 426.075 289 420C289 413.925 293.029 409 298 409C302.971 409 307 413.925 307 420Z" stroke="#D9D9D9" stroke-width="2" mask="url(#path-1-inside-1_174_112)"/>
<path d="M443 334C443 340.075 438.971 345 434 345C429.029 345 425 340.075 425 334C425 327.925 429.029 323 434 323C438.971 323 443 327.925 443 334Z" stroke="#D9D9D9" stroke-width="2" mask="url(#path-1-inside-1_174_112)"/>
<path d="M137 312C137 318.075 132.971 323 128 323C123.029 323 119 318.075 119 312C119 305.925 123.029 301 128 301C132.971 301 137 305.925 137 312Z" stroke="#D9D9D9" stroke-width="2" mask="url(#path-1-inside-1_174_112)"/>
<path d="M419 227C419 233.075 414.971 238 410 238C405.029 238 401 233.075 401 227C401 220.925 405.029 216 410 216C414.971 216 419 220.925 419 227Z" stroke="#D9D9D9" stroke-width="2" mask="url(#path-1-inside-1_174_112)"/>
<path d="M268 123C268 129.075 263.971 134 259 134C254.029 134 250 129.075 250 123C250 116.925 254.029 112 259 112C263.971 112 268 116.925 268 123Z" stroke="#D9D9D9" stroke-width="2" mask="url(#path-1-inside-1_174_112)"/>
<path d="M173 409C173 415.075 168.971 420 164 420C159.029 420 155 415.075 155 409C155 402.925 159.029 398 164 398C168.971 398 173 402.925 173 409Z" stroke="#D9D9D9" stroke-width="2" mask="url(#path-1-inside-1_174_112)"/>
<path d="M191 185C191 191.075 186.971 196 182 196C177.029 196 173 191.075 173 185C173 178.925 177.029 174 182 174C186.971 174 191 178.925 191 185Z" stroke="#D9D9D9" stroke-width="2" mask="url(#path-1-inside-1_174_112)"/>
<path d="M342 185C342 191.075 337.971 196 333 196C328.029 196 324 191.075 324 185C324 178.925 328.029 174 333 174C337.971 174 342 178.925 342 185Z" stroke="#D9D9D9" stroke-width="2" mask="url(#path-1-inside-1_174_112)"/>
<path d="M173 262C173 268.075 168.971 273 164 273C159.029 273 155 268.075 155 262C155 255.925 159.029 251 164 251C168.971 251 173 255.925 173 262Z" stroke="#D9D9D9" stroke-width="2" mask="url(#path-1-inside-1_174_112)"/>
<path d="M289 240C289 246.075 284.971 251 280 251C275.029 251 271 246.075 271 240C271 233.925 275.029 229 280 229C284.971 229 289 233.925 289 240Z" stroke="#D9D9D9" stroke-width="2" mask="url(#path-1-inside-1_174_112)"/>
<path d="M259 334C259 340.075 254.971 345 250 345C245.029 345 241 340.075 241 334C241 327.925 245.029 323 250 323C254.971 323 259 327.925 259 334Z" stroke="#D9D9D9" stroke-width="2" mask="url(#path-1-inside-1_174_112)"/>
<path d="M318 320C318 326.075 313.971 331 309 331C304.029 331 300 326.075 300 320C300 313.925 304.029 309 309 309C313.971 309 318 313.925 318 320Z" stroke="#D9D9D9" stroke-width="2" mask="url(#path-1-inside-1_174_112)"/>
<path d="M300 84C300 90.0751 295.971 95 291 95C286.029 95 282 90.0751 282 84C282 77.9249 286.029 73 291 73C295.971 73 300 77.9249 300 84Z" stroke="#D9D9D9" stroke-width="2" mask="url(#path-1-inside-1_174_112)"/>
<path d="M274 417C274 423.075 269.971 428 265 428C260.029 428 256 423.075 256 417C256 410.925 260.029 406 265 406C269.971 406 274 410.925 274 417Z" stroke="#D9D9D9" stroke-width="2" mask="url(#path-1-inside-1_174_112)"/>
<path d="M410 331C410 337.075 405.971 342 401 342C396.029 342 392 337.075 392 331C392 324.925 396.029 320 401 320C405.971 320 410 324.925 410 331Z" stroke="#D9D9D9" stroke-width="2" mask="url(#path-1-inside-1_174_112)"/>
<path d="M104 309C104 315.075 99.9706 320 95 320C90.0294 320 86 315.075 86 309C86 302.925 90.0294 298 95 298C99.9706 298 104 302.925 104 309Z" stroke="#D9D9D9" stroke-width="2" mask="url(#path-1-inside-1_174_112)"/>
<path d="M386 224C386 230.075 381.971 235 377 235C372.029 235 368 230.075 368 224C368 217.925 372.029 213 377 213C381.971 213 386 217.925 386 224Z" stroke="#D9D9D9" stroke-width="2" mask="url(#path-1-inside-1_174_112)"/>
<path d="M235 120C235 126.075 230.971 131 226 131C221.029 131 217 126.075 217 120C217 113.925 221.029 109 226 109C230.971 109 235 113.925 235 120Z" stroke="#D9D9D9" stroke-width="2" mask="url(#path-1-inside-1_174_112)"/>
<path d="M140 406C140 412.075 135.971 417 131 417C126.029 417 122 412.075 122 406C122 399.925 126.029 395 131 395C135.971 395 140 399.925 140 406Z" stroke="#D9D9D9" stroke-width="2" mask="url(#path-1-inside-1_174_112)"/>
<path d="M158 182C158 188.075 153.971 193 149 193C144.029 193 140 188.075 140 182C140 175.925 144.029 171 149 171C153.971 171 158 175.925 158 182Z" stroke="#D9D9D9" stroke-width="2" mask="url(#path-1-inside-1_174_112)"/>
<path d="M309 182C309 188.075 304.971 193 300 193C295.029 193 291 188.075 291 182C291 175.925 295.029 171 300 171C304.971 171 309 175.925 309 182Z" stroke="#D9D9D9" stroke-width="2" mask="url(#path-1-inside-1_174_112)"/>
<path d="M140 259C140 265.075 135.971 270 131 270C126.029 270 122 265.075 122 259C122 252.925 126.029 248 131 248C135.971 248 140 252.925 140 259Z" stroke="#D9D9D9" stroke-width="2" mask="url(#path-1-inside-1_174_112)"/>
<path d="M256 237C256 243.075 251.971 248 247 248C242.029 248 238 243.075 238 237C238 230.925 242.029 226 247 226C251.971 226 256 230.925 256 237Z" stroke="#D9D9D9" stroke-width="2" mask="url(#path-1-inside-1_174_112)"/>
<path d="M226 331C226 337.075 221.971 342 217 342C212.029 342 208 337.075 208 331C208 324.925 212.029 320 217 320C221.971 320 226 324.925 226 331Z" stroke="#D9D9D9" stroke-width="2" mask="url(#path-1-inside-1_174_112)"/>
<path d="M287 287C287 293.075 282.971 298 278 298C273.029 298 269 293.075 269 287C269 280.925 273.029 276 278 276C282.971 276 287 280.925 287 287Z" stroke="#D9D9D9" stroke-width="2" mask="url(#path-1-inside-1_174_112)"/>
<path d="M269 51C269 57.0751 264.971 62 260 62C255.029 62 251 57.0751 251 51C251 44.9249 255.029 40 260 40C264.971 40 269 44.9249 269 51Z" stroke="#D9D9D9" stroke-width="2" mask="url(#path-1-inside-1_174_112)"/>
<path d="M243 384C243 390.075 238.971 395 234 395C229.029 395 225 390.075 225 384C225 377.925 229.029 373 234 373C238.971 373 243 377.925 243 384Z" stroke="#D9D9D9" stroke-width="2" mask="url(#path-1-inside-1_174_112)"/>
<path d="M379 298C379 304.075 374.971 309 370 309C365.029 309 361 304.075 361 298C361 291.925 365.029 287 370 287C374.971 287 379 291.925 379 298Z" stroke="#D9D9D9" stroke-width="2" mask="url(#path-1-inside-1_174_112)"/>
<path d="M73 276C73 282.075 68.9706 287 64 287C59.0294 287 55 282.075 55 276C55 269.925 59.0294 265 64 265C68.9706 265 73 269.925 73 276Z" stroke="#D9D9D9" stroke-width="2" mask="url(#path-1-inside-1_174_112)"/>
<path d="M355 191C355 197.075 350.971 202 346 202C341.029 202 337 197.075 337 191C337 184.925 341.029 180 346 180C350.971 180 355 184.925 355 191Z" stroke="#D9D9D9" stroke-width="2" mask="url(#path-1-inside-1_174_112)"/>
<path d="M204 87C204 93.0751 199.971 98 195 98C190.029 98 186 93.0751 186 87C186 80.9249 190.029 76 195 76C199.971 76 204 80.9249 204 87Z" stroke="#D9D9D9" stroke-width="2" mask="url(#path-1-inside-1_174_112)"/>
<path d="M109 373C109 379.075 104.971 384 100 384C95.0294 384 91 379.075 91 373C91 366.925 95.0294 362 100 362C104.971 362 109 366.925 109 373Z" stroke="#D9D9D9" stroke-width="2" mask="url(#path-1-inside-1_174_112)"/>
<path d="M127 149C127 155.075 122.971 160 118 160C113.029 160 109 155.075 109 149C109 142.925 113.029 138 118 138C122.971 138 127 142.925 127 149Z" stroke="#D9D9D9" stroke-width="2" mask="url(#path-1-inside-1_174_112)"/>
<path d="M278 149C278 155.075 273.971 160 269 160C264.029 160 260 155.075 260 149C260 142.925 264.029 138 269 138C273.971 138 278 142.925 278 149Z" stroke="#D9D9D9" stroke-width="2" mask="url(#path-1-inside-1_174_112)"/>
<path d="M109 226C109 232.075 104.971 237 100 237C95.0294 237 91 232.075 91 226C91 219.925 95.0294 215 100 215C104.971 215 109 219.925 109 226Z" stroke="#D9D9D9" stroke-width="2" mask="url(#path-1-inside-1_174_112)"/>
<path d="M225 204C225 210.075 220.971 215 216 215C211.029 215 207 210.075 207 204C207 197.925 211.029 193 216 193C220.971 193 225 197.925 225 204Z" stroke="#D9D9D9" stroke-width="2" mask="url(#path-1-inside-1_174_112)"/>
<path d="M195 298C195 304.075 190.971 309 186 309C181.029 309 177 304.075 177 298C177 291.925 181.029 287 186 287C190.971 287 195 291.925 195 298Z" stroke="#D9D9D9" stroke-width="2" mask="url(#path-1-inside-1_174_112)"/>
<path d="M372 285C372 291.075 367.971 296 363 296C358.029 296 354 291.075 354 285C354 278.925 358.029 274 363 274C367.971 274 372 278.925 372 285Z" stroke="#D9D9D9" stroke-width="2" mask="url(#path-1-inside-1_174_112)"/>
<path d="M354 49C354 55.0751 349.971 60 345 60C340.029 60 336 55.0751 336 49C336 42.9249 340.029 38 345 38C349.971 38 354 42.9249 354 49Z" stroke="#D9D9D9" stroke-width="2" mask="url(#path-1-inside-1_174_112)"/>
<path d="M328 382C328 388.075 323.971 393 319 393C314.029 393 310 388.075 310 382C310 375.925 314.029 371 319 371C323.971 371 328 375.925 328 382Z" stroke="#D9D9D9" stroke-width="2" mask="url(#path-1-inside-1_174_112)"/>
<path d="M464 296C464 302.075 459.971 307 455 307C450.029 307 446 302.075 446 296C446 289.925 450.029 285 455 285C459.971 285 464 289.925 464 296Z" stroke="#D9D9D9" stroke-width="2" mask="url(#path-1-inside-1_174_112)"/>
<path d="M158 274C158 280.075 153.971 285 149 285C144.029 285 140 280.075 140 274C140 267.925 144.029 263 149 263C153.971 263 158 267.925 158 274Z" stroke="#D9D9D9" stroke-width="2" mask="url(#path-1-inside-1_174_112)"/>
<path d="M440 189C440 195.075 435.971 200 431 200C426.029 200 422 195.075 422 189C422 182.925 426.029 178 431 178C435.971 178 440 182.925 440 189Z" stroke="#D9D9D9" stroke-width="2" mask="url(#path-1-inside-1_174_112)"/>
<path d="M289 85C289 91.0751 284.971 96 280 96C275.029 96 271 91.0751 271 85C271 78.9249 275.029 74 280 74C284.971 74 289 78.9249 289 85Z" stroke="#D9D9D9" stroke-width="2" mask="url(#path-1-inside-1_174_112)"/>
<path d="M194 371C194 377.075 189.971 382 185 382C180.029 382 176 377.075 176 371C176 364.925 180.029 360 185 360C189.971 360 194 364.925 194 371Z" stroke="#D9D9D9" stroke-width="2" mask="url(#path-1-inside-1_174_112)"/>
<path d="M212 147C212 153.075 207.971 158 203 158C198.029 158 194 153.075 194 147C194 140.925 198.029 136 203 136C207.971 136 212 140.925 212 147Z" stroke="#D9D9D9" stroke-width="2" mask="url(#path-1-inside-1_174_112)"/>
<path d="M363 147C363 153.075 358.971 158 354 158C349.029 158 345 153.075 345 147C345 140.925 349.029 136 354 136C358.971 136 363 140.925 363 147Z" stroke="#D9D9D9" stroke-width="2" mask="url(#path-1-inside-1_174_112)"/>
<path d="M194 224C194 230.075 189.971 235 185 235C180.029 235 176 230.075 176 224C176 217.925 180.029 213 185 213C189.971 213 194 217.925 194 224Z" stroke="#D9D9D9" stroke-width="2" mask="url(#path-1-inside-1_174_112)"/>
<path d="M310 202C310 208.075 305.971 213 301 213C296.029 213 292 208.075 292 202C292 195.925 296.029 191 301 191C305.971 191 310 195.925 310 202Z" stroke="#D9D9D9" stroke-width="2" mask="url(#path-1-inside-1_174_112)"/>
<path d="M280 296C280 302.075 275.971 307 271 307C266.029 307 262 302.075 262 296C262 289.925 266.029 285 271 285C275.971 285 280 289.925 280 296Z" stroke="#D9D9D9" stroke-width="2" mask="url(#path-1-inside-1_174_112)"/>
<path d="M360 356C360 362.075 355.971 367 351 367C346.029 367 342 362.075 342 356C342 349.925 346.029 345 351 345C355.971 345 360 349.925 360 356Z" stroke="#D9D9D9" stroke-width="2" mask="url(#path-1-inside-1_174_112)"/>
<path d="M342 120C342 126.075 337.971 131 333 131C328.029 131 324 126.075 324 120C324 113.925 328.029 109 333 109C337.971 109 342 113.925 342 120Z" stroke="#D9D9D9" stroke-width="2" mask="url(#path-1-inside-1_174_112)"/>
<path d="M316 453C316 459.075 311.971 464 307 464C302.029 464 298 459.075 298 453C298 446.925 302.029 442 307 442C311.971 442 316 446.925 316 453Z" stroke="#D9D9D9" stroke-width="2" mask="url(#path-1-inside-1_174_112)"/>
<path d="M452 367C452 373.075 447.971 378 443 378C438.029 378 434 373.075 434 367C434 360.925 438.029 356 443 356C447.971 356 452 360.925 452 367Z" stroke="#D9D9D9" stroke-width="2" mask="url(#path-1-inside-1_174_112)"/>
<path d="M146 345C146 351.075 141.971 356 137 356C132.029 356 128 351.075 128 345C128 338.925 132.029 334 137 334C141.971 334 146 338.925 146 345Z" stroke="#D9D9D9" stroke-width="2" mask="url(#path-1-inside-1_174_112)"/>
<path d="M428 260C428 266.075 423.971 271 419 271C414.029 271 410 266.075 410 260C410 253.925 414.029 249 419 249C423.971 249 428 253.925 428 260Z" stroke="#D9D9D9" stroke-width="2" mask="url(#path-1-inside-1_174_112)"/>
<path d="M277 156C277 162.075 272.971 167 268 167C263.029 167 259 162.075 259 156C259 149.925 263.029 145 268 145C272.971 145 277 149.925 277 156Z" stroke="#D9D9D9" stroke-width="2" mask="url(#path-1-inside-1_174_112)"/>
<path d="M182 442C182 448.075 177.971 453 173 453C168.029 453 164 448.075 164 442C164 435.925 168.029 431 173 431C177.971 431 182 435.925 182 442Z" stroke="#D9D9D9" stroke-width="2" mask="url(#path-1-inside-1_174_112)"/>
<path d="M200 218C200 224.075 195.971 229 191 229C186.029 229 182 224.075 182 218C182 211.925 186.029 207 191 207C195.971 207 200 211.925 200 218Z" stroke="#D9D9D9" stroke-width="2" mask="url(#path-1-inside-1_174_112)"/>
<path d="M351 218C351 224.075 346.971 229 342 229C337.029 229 333 224.075 333 218C333 211.925 337.029 207 342 207C346.971 207 351 211.925 351 218Z" stroke="#D9D9D9" stroke-width="2" mask="url(#path-1-inside-1_174_112)"/>
<path d="M182 295C182 301.075 177.971 306 173 306C168.029 306 164 301.075 164 295C164 288.925 168.029 284 173 284C177.971 284 182 288.925 182 295Z" stroke="#D9D9D9" stroke-width="2" mask="url(#path-1-inside-1_174_112)"/>
<path d="M298 273C298 279.075 293.971 284 289 284C284.029 284 280 279.075 280 273C280 266.925 284.029 262 289 262C293.971 262 298 266.925 298 273Z" stroke="#D9D9D9" stroke-width="2" mask="url(#path-1-inside-1_174_112)"/>
<path d="M268 367C268 373.075 263.971 378 259 378C254.029 378 250 373.075 250 367C250 360.925 254.029 356 259 356C263.971 356 268 360.925 268 367Z" stroke="#D9D9D9" stroke-width="2" mask="url(#path-1-inside-1_174_112)"/>
</svg>
