<svg width="502" height="502" viewBox="0 0 502 502" fill="none" xmlns="http://www.w3.org/2000/svg">
<path d="M1 251C1 112.929 112.929 1 251 1C389.071 1 501 112.929 501 251C501 389.071 389.071 501 251 501C112.929 501 1 389.071 1 251Z" fill="#F1D7AD"/>
<path d="M127.206 292.8C84.1384 264.64 36.8047 304.533 18.5213 328C8.77011 309.52 8.36383 306.367 9.37958 307.1C10.0567 304.167 12.8331 297.2 18.5213 292.8C25.6315 287.3 41.8834 286.2 53.0566 278.5C64.2298 270.8 76.4187 251 114.001 262C144.067 270.8 159.71 286.2 163.773 292.8C189.505 290.6 244.22 287.52 257.221 292.8C273.322 299.338 315.34 271.331 328.962 262.252L329.339 262C342.544 253.2 381.142 251 416.693 262C452.244 273 435.992 278.5 463.417 278.5C485.358 278.5 497.614 260.167 501 251L493.89 286.2C492.535 290.233 484.545 302.26 463.417 318.1C437.008 337.9 419.74 298.3 404.504 278.5C389.268 258.7 287.694 309.3 283.631 312.6C279.568 315.9 181.04 328 127.206 292.8Z" fill="#F5810D"/>
<path d="M121.128 264.086C77.3601 250.554 29.2568 269.724 10.6761 281C0.766357 272.12 0.353455 270.605 1.38574 270.957C2.07391 269.548 4.89542 266.2 10.6761 264.086C17.9019 261.443 34.4181 260.914 45.7729 257.214C57.1278 253.514 69.515 244 107.709 249.286C138.264 253.514 154.16 260.914 158.289 264.086C184.44 263.029 240.044 261.549 253.257 264.086C269.619 267.228 312.321 253.769 326.164 249.407L326.548 249.286C339.967 245.057 379.193 244 415.322 249.286C451.451 254.571 434.935 257.214 462.806 257.214C485.103 257.214 497.559 248.405 501 244L493.774 260.914C492.398 262.852 484.277 268.631 462.806 276.243C435.968 285.757 418.419 266.729 402.935 257.214C387.451 247.7 284.225 272.014 280.096 273.6C275.967 275.186 175.838 281 121.128 264.086Z" fill="#F5810D"/>
<path d="M193 72C129 69.6 77.6667 83.6667 60 91L36 123L91 101L171 91L231 101L303 112C319.666 119 363.199 131 403.999 123C444.799 115 452.333 105 450.999 101L429 72C429.333 75.6667 422.2 86.6 391 101C352 119 273 75 193 72Z" fill="#F0AE6C"/>
<path d="M187.896 438.682C126.384 441.486 77.0467 425.052 60.0669 416.484L37 379.097L89.8616 404.8L166.751 416.484L224.418 404.8L293.619 391.949C309.637 383.771 351.478 369.751 390.691 379.097C429.905 388.444 437.146 400.127 435.864 404.8L414.72 438.682C415.041 434.398 408.185 421.624 378.198 404.8C340.714 383.771 264.785 435.177 187.896 438.682Z" fill="#F0AE6C"/>
<path d="M232.859 151.349C168.859 148.949 117.526 163.016 99.8594 170.349L75.8594 202.349L130.859 180.349L210.859 170.349L270.859 180.349L342.859 191.349C359.526 198.349 403.059 210.349 443.859 202.349C484.659 194.349 492.192 184.349 490.859 180.349L468.859 151.349C469.193 155.016 462.059 165.949 430.859 180.349C391.859 198.349 312.859 154.349 232.859 151.349Z" fill="#F0AE6C"/>
<path d="M196.158 126.081C128.017 125.369 73.3625 129.542 54.5528 131.718L29 141.213L87.5585 134.686L172.734 131.718L236.616 134.686L313.275 137.949C331.02 140.027 377.369 143.587 420.809 141.213C464.248 138.84 472.269 135.872 470.85 134.686L447.427 126.081C447.782 127.169 440.187 130.413 406.968 134.686C365.445 140.027 281.334 126.971 196.158 126.081Z" fill="#F4CA9F"/>
<path d="M190.158 142.081C122.017 141.369 67.3625 145.542 48.5528 147.718L23 157.213L81.5585 150.686L166.734 147.718L230.616 150.686L307.275 153.949C325.02 156.027 371.369 159.587 414.809 157.213C458.248 154.84 466.269 151.872 464.85 150.686L441.427 142.081C441.782 143.169 434.187 146.413 400.968 150.686C359.445 156.027 275.334 142.971 190.158 142.081Z" fill="#F4CA9F"/>
<path d="M198.241 110.081C132.105 109.369 79.0577 113.542 60.8012 115.718L36 125.213L92.8362 118.686L175.507 115.718L237.51 118.686L311.914 121.949C329.137 124.027 374.123 127.587 416.285 125.213C458.447 122.84 466.232 119.872 464.854 118.686L442.12 110.081C442.465 111.169 435.093 114.413 402.852 118.686C362.55 124.027 280.912 110.971 198.241 110.081Z" fill="#F4CA9F"/>
<path d="M195.311 222.056C119.77 221.566 59.1801 224.435 38.3278 225.931L10 232.459L74.9178 227.971L169.344 225.931L240.163 227.971L325.146 230.215C344.818 231.643 396.201 234.091 444.358 232.459C492.515 230.827 501.407 228.787 499.833 227.971L473.867 222.056C474.26 222.803 465.841 225.034 429.015 227.971C382.982 231.643 289.737 222.667 195.311 222.056Z" fill="#F4CA9F"/>
<path d="M188.311 233.056C112.77 232.566 52.1801 235.435 31.3278 236.931L3.00003 243.459L67.9178 238.971L162.344 236.931L233.163 238.971L318.146 241.215C337.818 242.643 389.201 245.091 437.358 243.459C485.515 241.827 494.407 239.787 492.833 238.971L466.867 233.056C467.26 233.803 458.841 236.034 422.015 238.971C375.982 242.643 282.737 233.667 188.311 233.056Z" fill="#F4CA9F"/>
<path d="M197.016 211.056C123.634 210.566 64.775 213.435 44.5184 214.931L17 221.459L80.063 216.971L171.791 214.931L240.587 216.971L323.142 219.215C342.252 220.643 392.167 223.091 438.948 221.459C485.729 219.827 494.367 217.787 492.838 216.971L467.614 211.056C467.996 211.803 459.817 214.034 424.043 216.971C379.325 220.643 288.744 211.667 197.016 211.056Z" fill="#F4CA9F"/>
<path d="M229.823 461.035C196.06 460.724 168.98 462.55 159.661 463.502L147 467.656L176.014 464.8L218.217 463.502L249.869 464.8L287.851 466.228C296.643 467.137 319.608 468.694 341.131 467.656C362.655 466.617 366.629 465.319 365.925 464.8L354.32 461.035C354.496 461.511 350.733 462.931 334.274 464.8C313.7 467.137 272.025 461.425 229.823 461.035Z" fill="#F4CA9F"/>
<path d="M226.823 468.045C193.06 467.645 165.98 469.993 156.661 471.217L144 476.558L173.014 472.886L215.217 471.217L246.869 472.886L284.851 474.722C293.643 475.89 316.608 477.893 338.131 476.558C359.655 475.222 363.629 473.553 362.925 472.886L351.32 468.045C351.496 468.657 347.733 470.482 331.274 472.886C310.7 475.89 269.025 468.546 226.823 468.045Z" fill="#F4CA9F"/>
<path d="M230.553 452.045C197.716 451.645 171.378 453.993 162.314 455.217L150 460.558L178.219 456.886L219.266 455.217L250.05 456.886L286.992 458.722C295.543 459.89 317.879 461.893 338.813 460.558C359.746 459.222 363.612 457.553 362.927 456.886L351.64 452.045C351.811 452.657 348.151 454.482 332.143 456.886C312.133 459.89 271.6 452.546 230.553 452.045Z" fill="#F4CA9F"/>
<path d="M204.863 364.035C138.881 363.724 85.9573 365.55 67.7434 366.502L43 370.656L99.7037 367.8L182.182 366.502L244.04 367.8L318.271 369.228C335.453 370.137 380.335 371.694 422.398 370.656C464.462 369.617 472.229 368.319 470.854 367.8L448.174 364.035C448.517 364.511 441.163 365.931 408.996 367.8C368.788 370.137 287.341 364.425 204.863 364.035Z" fill="#F4CA9F"/>
<path d="M198.863 371.035C132.881 370.724 79.9573 372.55 61.7434 373.502L37 377.656L93.7037 374.8L176.182 373.502L238.04 374.8L312.271 376.228C329.453 377.137 374.335 378.694 416.398 377.656C458.462 376.617 466.229 375.319 464.854 374.8L442.174 371.035C442.517 371.511 435.163 372.931 402.996 374.8C362.788 377.137 281.341 371.425 198.863 371.035Z" fill="#F4CA9F"/>
<path d="M206.325 357.035C142.193 356.724 90.7529 358.55 73.0497 359.502L49 363.656L104.114 360.8L184.279 359.502L244.404 360.8L316.553 362.228C333.254 363.137 376.877 364.694 417.761 363.656C458.646 362.617 466.194 361.319 464.858 360.8L442.814 357.035C443.148 357.511 435.999 358.931 404.735 360.8C365.654 363.137 286.491 357.425 206.325 357.035Z" fill="#F4CA9F"/>
<path d="M144 304.5C144 291.521 164.595 281 190 281C215.405 281 236 291.521 236 304.5C236 317.479 215.405 328 190 328C164.595 328 144 317.479 144 304.5Z" fill="#DD0D0D"/>
<path d="M132 325C89.6 299.4 43 335.667 25 357C15.4 340.2 15 337.333 16 338C16.6667 335.333 19.4 329 25 325C32 320 48 319 59 312C70 305 82 287 119 297C148.6 305 164 319 168 325C193.333 323 247.2 320.2 260 325C275.851 330.944 317.218 305.483 330.628 297.229L331 297C344 289 382 287 417 297C452 307 436 312 463 312C484.6 312 496.667 295.333 500 287L493 319C491.667 322.667 483.8 333.6 463 348C437 366 420 330 405 312C390 294 290 340 286 343C282 346 185 357 132 325Z" fill="#F5810D"/>
<path d="M121.128 282.086C77.3601 268.554 29.2568 287.724 10.6761 299C0.766357 290.12 0.353455 288.605 1.38574 288.957C2.07391 287.548 4.89542 284.2 10.6761 282.086C17.9019 279.443 34.4181 278.914 45.7729 275.214C57.1278 271.514 69.515 262 107.709 267.286C138.264 271.514 154.16 278.914 158.289 282.086C184.44 281.029 240.044 279.549 253.257 282.086C269.619 285.228 312.321 271.769 326.164 267.407L326.548 267.286C339.967 263.057 379.193 262 415.322 267.286C451.451 272.571 434.935 275.214 462.806 275.214C485.103 275.214 497.559 266.405 501 262L493.774 278.914C492.398 280.852 484.277 286.631 462.806 294.243C435.968 303.757 418.419 284.729 402.935 275.214C387.451 265.7 284.225 290.014 280.096 291.6C275.967 293.186 175.838 299 121.128 282.086Z" fill="#F5810D"/>
<path d="M133.998 344.286C93.5568 333.314 49.1093 348.857 31.9407 358C22.7841 350.8 22.4026 349.571 23.3564 349.857C23.9923 348.714 26.5994 346 31.9407 344.286C38.6174 342.143 53.8783 341.714 64.3702 338.714C74.8621 335.714 86.3078 328 121.599 332.286C149.832 335.714 164.52 341.714 168.335 344.286C192.499 343.429 243.877 342.229 256.086 344.286C271.204 346.833 310.661 335.921 323.452 332.384L323.806 332.286C336.206 328.857 372.451 328 405.834 332.286C439.217 336.571 423.956 338.714 449.709 338.714C470.311 338.714 481.821 331.571 485 328L478.323 341.714C477.052 343.286 469.548 347.971 449.709 354.143C424.91 361.857 408.695 346.429 394.388 338.714C380.081 331 284.7 350.714 280.885 352C277.07 353.286 184.55 358 133.998 344.286Z" fill="#F39639"/>
<path d="M129.44 335.971C88.4731 331.949 43.4483 337.648 26.0568 341C16.7813 338.36 16.3949 337.91 17.3611 338.014C18.0052 337.595 20.6461 336.6 26.0568 335.971C32.8202 335.186 48.2793 335.029 58.9075 333.929C69.5356 332.829 81.13 330 116.879 331.571C145.479 332.829 160.358 335.029 164.223 335.971C188.7 335.657 240.746 335.217 253.113 335.971C268.428 336.905 308.397 332.904 321.354 331.607L321.713 331.571C334.273 330.314 370.989 330 404.806 331.571C438.623 333.143 423.163 333.929 449.251 333.929C470.121 333.929 481.779 331.31 485 330L478.237 335.029C476.948 335.605 469.348 337.323 449.251 339.586C424.13 342.414 407.704 336.757 393.211 333.929C378.718 331.1 282.099 338.329 278.234 338.8C274.369 339.271 180.648 341 129.44 335.971Z" fill="#F39639"/>
<path d="M133.998 351.143C93.5568 345.657 49.1093 353.429 31.9407 358C22.7841 354.4 22.4026 353.786 23.3564 353.929C23.9923 353.357 26.5994 352 31.9407 351.143C38.6174 350.071 53.8783 349.857 64.3702 348.357C74.8621 346.857 86.3078 343 121.599 345.143C149.832 346.857 164.52 349.857 168.335 351.143C192.499 350.714 243.877 350.114 256.086 351.143C271.204 352.417 310.661 346.961 323.452 345.192L323.806 345.143C336.206 343.429 372.451 343 405.834 345.143C439.217 347.286 423.956 348.357 449.709 348.357C470.311 348.357 481.821 344.786 485 343L478.323 349.857C477.052 350.643 469.548 352.986 449.709 356.071C424.91 359.929 408.695 352.214 394.388 348.357C380.081 344.5 284.7 354.357 280.885 355C277.07 355.643 184.55 358 133.998 351.143Z" fill="#F39639"/>
<path d="M118.557 240.829C78.6404 229.491 34.7702 245.552 17.8246 255C8.78693 247.56 8.41037 246.29 9.35178 246.586C9.9794 245.405 12.5526 242.6 17.8246 240.829C24.4146 238.614 39.4773 238.171 49.8329 235.071C60.1886 231.971 71.4856 224 106.318 228.429C134.184 231.971 148.682 238.171 152.448 240.829C176.297 239.943 227.009 238.703 239.059 240.829C253.981 243.461 292.925 232.185 305.55 228.53L305.9 228.429C318.138 224.886 353.912 224 386.862 228.429C419.812 232.857 404.749 235.071 430.167 235.071C450.502 235.071 461.862 227.69 465 224L458.41 238.171C457.155 239.795 449.749 244.637 430.167 251.014C405.69 258.986 389.686 243.043 375.565 235.071C361.444 227.1 267.301 247.471 263.536 248.8C259.77 250.129 168.452 255 118.557 240.829Z" fill="#F39639"/>
<path d="M112.479 229.6C71.8622 224.48 27.2223 231.733 9.9794 236C0.783203 232.64 0.400024 232.067 1.35797 232.2C1.99658 231.667 4.61496 230.4 9.9794 229.6C16.685 228.6 32.012 228.4 42.5493 227C53.0866 225.6 64.5819 222 100.026 224C128.381 225.6 143.133 228.4 146.965 229.6C171.232 229.2 222.833 228.64 235.095 229.6C250.279 230.789 289.906 225.696 302.753 224.046L303.108 224C315.562 222.4 351.963 222 385.491 224C419.019 226 403.692 227 429.556 227C450.248 227 461.807 223.667 465 222L458.294 228.4C457.017 229.133 449.481 231.32 429.556 234.2C404.65 237.8 388.365 230.6 373.996 227C359.627 223.4 263.833 232.6 260.001 233.2C256.169 233.8 163.25 236 112.479 229.6Z" fill="#F39639"/>
<path d="M122.875 252.657C83.5714 242.783 40.3746 256.771 23.6891 265C14.7902 258.52 14.4194 257.414 15.3464 257.671C15.9644 256.643 18.4981 254.2 23.6891 252.657C30.1779 250.729 45.0095 250.343 55.2061 247.643C65.4028 244.943 76.5264 238 110.824 241.857C138.263 244.943 152.538 250.343 156.246 252.657C179.729 251.886 229.662 250.806 241.527 252.657C256.22 254.95 294.567 245.129 306.998 241.945L307.342 241.857C319.393 238.771 354.618 238 387.061 241.857C419.505 245.714 404.674 247.643 429.702 247.643C449.725 247.643 460.91 241.214 464 238L457.511 250.343C456.275 251.757 448.983 255.974 429.702 261.529C405.601 268.471 389.842 254.586 375.938 247.643C362.033 240.7 269.336 258.443 265.628 259.6C261.92 260.757 172.004 265 122.875 252.657Z" fill="#F39639"/>
<path d="M112.479 236.057C71.8622 231.303 27.2223 238.038 9.9794 242C0.783203 238.88 0.400024 238.348 1.35797 238.471C1.99658 237.976 4.61496 236.8 9.9794 236.057C16.685 235.129 32.012 234.943 42.5493 233.643C53.0866 232.343 64.5819 229 100.026 230.857C128.381 232.343 143.133 234.943 146.965 236.057C171.232 235.686 222.833 235.166 235.095 236.057C250.279 237.161 289.907 232.432 302.753 230.9L303.108 230.857C315.562 229.371 351.963 229 385.491 230.857C419.019 232.714 403.692 233.643 429.556 233.643C450.248 233.643 461.807 230.548 465 229L458.294 234.943C457.017 235.624 449.481 237.654 429.556 240.329C404.65 243.671 388.365 236.986 373.996 233.643C359.627 230.3 263.833 238.843 260.001 239.4C256.169 239.957 163.25 242 112.479 236.057Z" fill="#F39639"/>
<path d="M501 251C501 112.929 389.071 1 251 1C112.929 1 1 112.929 1 251C1 389.071 112.929 501 251 501C389.071 501 501 389.071 501 251ZM501 251L493.89 286.2C492.535 290.233 484.545 302.26 463.417 318.1C437.008 337.9 419.74 298.3 404.504 278.5C389.268 258.7 287.694 309.3 283.631 312.6C279.568 315.9 181.04 328 127.206 292.8C84.1384 264.64 36.8047 304.533 18.5213 328C8.77011 309.52 8.36383 306.367 9.37958 307.1C10.0567 304.167 12.8331 297.2 18.5213 292.8C25.6315 287.3 41.8834 286.2 53.0566 278.5C64.2298 270.8 76.4187 251 114.001 262C144.067 270.8 159.71 286.2 163.773 292.8C189.505 290.6 244.22 287.52 257.221 292.8C273.322 299.338 315.34 271.331 328.962 262.252L329.339 262C342.544 253.2 381.142 251 416.693 262C452.244 273 435.992 278.5 463.417 278.5C485.358 278.5 497.614 260.167 501 251ZM31.9407 358C49.1093 348.857 93.5568 333.314 133.998 344.286C184.55 358 277.07 353.286 280.885 352C284.7 350.714 380.081 331 394.388 338.714C408.695 346.429 424.91 361.857 449.709 354.143C469.548 347.971 477.052 343.286 478.323 341.714L485 328C481.821 331.571 470.311 338.714 449.709 338.714C423.956 338.714 439.217 336.571 405.834 332.286C372.451 328 336.206 328.857 323.806 332.286L323.452 332.384C310.661 335.921 271.204 346.833 256.086 344.286C243.877 342.229 192.499 343.429 168.335 344.286C164.52 341.714 149.832 335.714 121.599 332.286C86.3078 328 74.8621 335.714 64.3702 338.714C53.8783 341.714 38.6174 342.143 31.9407 344.286C26.5994 346 23.9923 348.714 23.3564 349.857C22.4026 349.571 22.7841 350.8 31.9407 358ZM31.9407 358C49.1093 353.429 93.5568 345.657 133.998 351.143C184.55 358 277.07 355.643 280.885 355C284.7 354.357 380.081 344.5 394.388 348.357C408.695 352.214 424.91 359.929 449.709 356.071C469.548 352.986 477.052 350.643 478.323 349.857L485 343C481.821 344.786 470.311 348.357 449.709 348.357C423.956 348.357 439.217 347.286 405.834 345.143C372.451 343 336.206 343.429 323.806 345.143L323.452 345.192C310.661 346.961 271.204 352.417 256.086 351.143C243.877 350.114 192.499 350.714 168.335 351.143C164.52 349.857 149.832 346.857 121.599 345.143C86.3078 343 74.8621 346.857 64.3702 348.357C53.8783 349.857 38.6174 350.071 31.9407 351.143C26.5994 352 23.9923 353.357 23.3564 353.929C22.4026 353.786 22.7841 354.4 31.9407 358ZM10.6761 281C29.2568 269.724 77.3601 250.554 121.128 264.086C175.838 281 275.967 275.186 280.096 273.6C284.225 272.014 387.451 247.7 402.935 257.214C418.419 266.729 435.968 285.757 462.806 276.243C484.277 268.631 492.398 262.852 493.774 260.914L501 244C497.559 248.405 485.103 257.214 462.806 257.214C434.935 257.214 451.451 254.571 415.322 249.286C379.193 244 339.967 245.057 326.548 249.286L326.164 249.407C312.321 253.769 269.619 267.228 253.257 264.086C240.044 261.549 184.44 263.029 158.289 264.086C154.16 260.914 138.264 253.514 107.709 249.286C69.515 244 57.1278 253.514 45.7729 257.214C34.4181 260.914 17.9019 261.443 10.6761 264.086C4.89542 266.2 2.07391 269.548 1.38574 270.957C0.353455 270.605 0.766357 272.12 10.6761 281ZM60 91C77.6667 83.6667 129 69.6 193 72C273 75 352 119 391 101C422.2 86.6 429.333 75.6667 429 72L450.999 101C452.333 105 444.799 115 403.999 123C363.199 131 319.666 119 303 112L231 101L171 91L91 101L36 123L60 91ZM60.0669 416.484C77.0467 425.052 126.384 441.486 187.896 438.682C264.785 435.177 340.714 383.771 378.198 404.8C408.185 421.624 415.041 434.398 414.72 438.682L435.864 404.8C437.146 400.127 429.905 388.444 390.691 379.097C351.478 369.751 309.637 383.771 293.619 391.949L224.418 404.8L166.751 416.484L89.8616 404.8L37 379.097L60.0669 416.484ZM99.8594 170.349C117.526 163.016 168.859 148.949 232.859 151.349C312.859 154.349 391.859 198.349 430.859 180.349C462.059 165.949 469.193 155.016 468.859 151.349L490.859 180.349C492.192 184.349 484.659 194.349 443.859 202.349C403.059 210.349 359.526 198.349 342.859 191.349L270.859 180.349L210.859 170.349L130.859 180.349L75.8594 202.349L99.8594 170.349ZM54.5528 131.718C73.3625 129.542 128.017 125.369 196.158 126.081C281.334 126.971 365.445 140.027 406.968 134.686C440.187 130.413 447.782 127.169 447.427 126.081L470.85 134.686C472.269 135.872 464.248 138.84 420.809 141.213C377.369 143.587 331.02 140.027 313.275 137.949L236.616 134.686L172.734 131.718L87.5585 134.686L29 141.213L54.5528 131.718ZM48.5528 147.718C67.3625 145.542 122.017 141.369 190.158 142.081C275.334 142.971 359.445 156.027 400.968 150.686C434.187 146.413 441.782 143.169 441.427 142.081L464.85 150.686C466.269 151.872 458.248 154.84 414.809 157.213C371.369 159.587 325.02 156.027 307.275 153.949L230.616 150.686L166.734 147.718L81.5585 150.686L23 157.213L48.5528 147.718ZM60.8012 115.718C79.0577 113.542 132.105 109.369 198.241 110.081C280.912 110.971 362.55 124.027 402.852 118.686C435.093 114.413 442.465 111.169 442.12 110.081L464.854 118.686C466.232 119.872 458.447 122.84 416.285 125.213C374.123 127.587 329.137 124.027 311.914 121.949L237.51 118.686L175.507 115.718L92.8362 118.686L36 125.213L60.8012 115.718ZM38.3278 225.931C59.1801 224.435 119.77 221.566 195.311 222.056C289.737 222.667 382.982 231.643 429.015 227.971C465.841 225.034 474.26 222.803 473.867 222.056L499.833 227.971C501.407 228.787 492.515 230.827 444.358 232.459C396.201 234.091 344.818 231.643 325.146 230.215L240.163 227.971L169.344 225.931L74.9178 227.971L10 232.459L38.3278 225.931ZM31.3278 236.931C52.1801 235.435 112.77 232.566 188.311 233.056C282.737 233.667 375.982 242.643 422.015 238.971C458.841 236.034 467.26 233.803 466.867 233.056L492.833 238.971C494.407 239.787 485.515 241.827 437.358 243.459C389.201 245.091 337.818 242.643 318.146 241.215L233.163 238.971L162.344 236.931L67.9178 238.971L3.00003 243.459L31.3278 236.931ZM44.5184 214.931C64.775 213.435 123.634 210.566 197.016 211.056C288.744 211.667 379.325 220.643 424.043 216.971C459.817 214.034 467.996 211.803 467.614 211.056L492.838 216.971C494.367 217.787 485.729 219.827 438.948 221.459C392.167 223.091 342.252 220.643 323.142 219.215L240.587 216.971L171.791 214.931L80.063 216.971L17 221.459L44.5184 214.931ZM159.661 463.502C168.98 462.55 196.06 460.724 229.823 461.035C272.025 461.425 313.7 467.137 334.274 464.8C350.733 462.931 354.496 461.511 354.32 461.035L365.925 464.8C366.629 465.319 362.655 466.617 341.131 467.656C319.608 468.694 296.643 467.137 287.851 466.228L249.869 464.8L218.217 463.502L176.014 464.8L147 467.656L159.661 463.502ZM156.661 471.217C165.98 469.993 193.06 467.645 226.823 468.045C269.025 468.546 310.7 475.89 331.274 472.886C347.733 470.482 351.496 468.657 351.32 468.045L362.925 472.886C363.629 473.553 359.655 475.222 338.131 476.558C316.608 477.893 293.643 475.89 284.851 474.722L246.869 472.886L215.217 471.217L173.014 472.886L144 476.558L156.661 471.217ZM162.314 455.217C171.378 453.993 197.716 451.645 230.553 452.045C271.6 452.546 312.133 459.89 332.143 456.886C348.151 454.482 351.811 452.657 351.64 452.045L362.927 456.886C363.612 457.553 359.746 459.222 338.813 460.558C317.879 461.893 295.543 459.89 286.992 458.722L250.05 456.886L219.266 455.217L178.219 456.886L150 460.558L162.314 455.217ZM67.7434 366.502C85.9573 365.55 138.881 363.724 204.863 364.035C287.341 364.425 368.788 370.137 408.996 367.8C441.163 365.931 448.517 364.511 448.174 364.035L470.854 367.8C472.229 368.319 464.462 369.617 422.398 370.656C380.335 371.694 335.453 370.137 318.271 369.228L244.04 367.8L182.182 366.502L99.7037 367.8L43 370.656L67.7434 366.502ZM61.7434 373.502C79.9573 372.55 132.881 370.724 198.863 371.035C281.341 371.425 362.788 377.137 402.996 374.8C435.163 372.931 442.517 371.511 442.174 371.035L464.854 374.8C466.229 375.319 458.462 376.617 416.398 377.656C374.335 378.694 329.453 377.137 312.271 376.228L238.04 374.8L176.182 373.502L93.7037 374.8L37 377.656L61.7434 373.502ZM73.0497 359.502C90.7529 358.55 142.193 356.724 206.325 357.035C286.491 357.425 365.654 363.137 404.735 360.8C435.999 358.931 443.148 357.511 442.814 357.035L464.858 360.8C466.194 361.319 458.646 362.617 417.761 363.656C376.877 364.694 333.254 363.137 316.553 362.228L244.404 360.8L184.279 359.502L104.114 360.8L49 363.656L73.0497 359.502ZM144 304.5C144 291.521 164.595 281 190 281C215.405 281 236 291.521 236 304.5C236 317.479 215.405 328 190 328C164.595 328 144 317.479 144 304.5ZM25 357C43 335.667 89.6 299.4 132 325C185 357 282 346 286 343C290 340 390 294 405 312C420 330 437 366 463 348C483.8 333.6 491.667 322.667 493 319L500 287C496.667 295.333 484.6 312 463 312C436 312 452 307 417 297C382 287 344 289 331 297L330.628 297.229C317.218 305.483 275.851 330.944 260 325C247.2 320.2 193.333 323 168 325C164 319 148.6 305 119 297C82 287 70 305 59 312C48 319 32 320 25 325C19.4 329 16.6667 335.333 16 338C15 337.333 15.4 340.2 25 357ZM10.6761 299C29.2568 287.724 77.3601 268.554 121.128 282.086C175.838 299 275.967 293.186 280.096 291.6C284.225 290.014 387.451 265.7 402.935 275.214C418.419 284.729 435.968 303.757 462.806 294.243C484.277 286.631 492.398 280.852 493.774 278.914L501 262C497.559 266.405 485.103 275.214 462.806 275.214C434.935 275.214 451.451 272.571 415.322 267.286C379.193 262 339.967 263.057 326.548 267.286L326.164 267.407C312.321 271.769 269.619 285.228 253.257 282.086C240.044 279.549 184.44 281.029 158.289 282.086C154.16 278.914 138.264 271.514 107.709 267.286C69.515 262 57.1278 271.514 45.7729 275.214C34.4181 278.914 17.9019 279.443 10.6761 282.086C4.89542 284.2 2.07391 287.548 1.38574 288.957C0.353455 288.605 0.766357 290.12 10.6761 299ZM26.0568 341C43.4483 337.648 88.4731 331.949 129.44 335.971C180.648 341 274.369 339.271 278.234 338.8C282.099 338.329 378.718 331.1 393.211 333.929C407.704 336.757 424.13 342.414 449.251 339.586C469.348 337.323 476.948 335.605 478.237 335.029L485 330C481.779 331.31 470.121 333.929 449.251 333.929C423.163 333.929 438.623 333.143 404.806 331.571C370.989 330 334.273 330.314 321.713 331.571L321.354 331.607C308.397 332.904 268.428 336.905 253.113 335.971C240.746 335.217 188.7 335.657 164.223 335.971C160.358 335.029 145.479 332.829 116.879 331.571C81.13 330 69.5356 332.829 58.9075 333.929C48.2793 335.029 32.8202 335.186 26.0568 335.971C20.6461 336.6 18.0052 337.595 17.3611 338.014C16.3949 337.91 16.7813 338.36 26.0568 341ZM17.8246 255C34.7702 245.552 78.6404 229.491 118.557 240.829C168.452 255 259.77 250.129 263.536 248.8C267.301 247.471 361.444 227.1 375.565 235.071C389.686 243.043 405.69 258.986 430.167 251.014C449.749 244.637 457.155 239.795 458.41 238.171L465 224C461.862 227.69 450.502 235.071 430.167 235.071C404.749 235.071 419.812 232.857 386.862 228.429C353.912 224 318.138 224.886 305.9 228.429L305.55 228.53C292.925 232.185 253.981 243.461 239.059 240.829C227.009 238.703 176.297 239.943 152.448 240.829C148.682 238.171 134.184 231.971 106.318 228.429C71.4856 224 60.1886 231.971 49.8329 235.071C39.4773 238.171 24.4146 238.614 17.8246 240.829C12.5526 242.6 9.9794 245.405 9.35178 246.586C8.41037 246.29 8.78693 247.56 17.8246 255ZM9.9794 236C27.2223 231.733 71.8622 224.48 112.479 229.6C163.25 236 256.169 233.8 260.001 233.2C263.833 232.6 359.627 223.4 373.996 227C388.365 230.6 404.65 237.8 429.556 234.2C449.481 231.32 457.017 229.133 458.294 228.4L465 222C461.807 223.667 450.248 227 429.556 227C403.692 227 419.019 226 385.491 224C351.963 222 315.562 222.4 303.108 224L302.753 224.046C289.906 225.696 250.279 230.789 235.095 229.6C222.833 228.64 171.232 229.2 146.965 229.6C143.133 228.4 128.381 225.6 100.026 224C64.5819 222 53.0866 225.6 42.5493 227C32.012 228.4 16.685 228.6 9.9794 229.6C4.61496 230.4 1.99658 231.667 1.35797 232.2C0.400024 232.067 0.783203 232.64 9.9794 236ZM23.6891 265C40.3746 256.771 83.5714 242.783 122.875 252.657C172.004 265 261.92 260.757 265.628 259.6C269.336 258.443 362.033 240.7 375.938 247.643C389.842 254.586 405.601 268.471 429.702 261.529C448.983 255.974 456.275 251.757 457.511 250.343L464 238C460.91 241.214 449.725 247.643 429.702 247.643C404.674 247.643 419.505 245.714 387.061 241.857C354.618 238 319.393 238.771 307.342 241.857L306.998 241.945C294.567 245.129 256.22 254.95 241.527 252.657C229.662 250.806 179.729 251.886 156.246 252.657C152.538 250.343 138.263 244.943 110.824 241.857C76.5264 238 65.4028 244.943 55.2061 247.643C45.0095 250.343 30.1779 250.729 23.6891 252.657C18.4981 254.2 15.9644 256.643 15.3464 257.671C14.4194 257.414 14.7902 258.52 23.6891 265ZM9.9794 242C27.2223 238.038 71.8622 231.303 112.479 236.057C163.25 242 256.169 239.957 260.001 239.4C263.833 238.843 359.627 230.3 373.996 233.643C388.365 236.986 404.65 243.671 429.556 240.329C449.481 237.654 457.017 235.624 458.294 234.943L465 229C461.807 230.548 450.248 233.643 429.556 233.643C403.692 233.643 419.019 232.714 385.491 230.857C351.963 229 315.562 229.371 303.108 230.857L302.753 230.9C289.907 232.432 250.279 237.161 235.095 236.057C222.833 235.166 171.232 235.686 146.965 236.057C143.133 234.943 128.381 232.343 100.026 230.857C64.5819 229 53.0866 232.343 42.5493 233.643C32.012 234.943 16.685 235.129 9.9794 236.057C4.61496 236.8 1.99658 237.976 1.35797 238.471C0.400024 238.348 0.783203 238.88 9.9794 242Z" stroke="#F39639"/>
</svg>
