<svg width="502" height="502" viewBox="0 0 502 502" fill="none" xmlns="http://www.w3.org/2000/svg">
<path d="M501 251C501 389.071 389.071 501 251 501C112.929 501 1 389.071 1 251C1 112.929 112.929 1 251 1C389.071 1 501 112.929 501 251Z" fill="#BEB014"/>
<path d="M106 159C73.2001 73.4 23.0001 190 2.00012 259C-5.99988 349.4 103.333 444.667 159 481C169.333 480 192.4 471.8 202 447C214 416 266 406 362 442C458 478 545 175 447 240C349 305 432 193 305 97C178 1 370 132 199 357C28.0001 582 147 266 106 159Z" fill="#9F973C"/>
<path d="M501 251C501 389.071 389.071 501 251 501C112.929 501 1 389.071 1 251C1 112.929 112.929 1 251 1C389.071 1 501 112.929 501 251Z" stroke="#9F973C"/>
<path d="M106 159C73.2001 73.4 23.0001 190 2.00012 259C-5.99988 349.4 103.333 444.667 159 481C169.333 480 192.4 471.8 202 447C214 416 266 406 362 442C458 478 545 175 447 240C349 305 432 193 305 97C178 1 370 132 199 357C28.0001 582 147 266 106 159Z" stroke="#9F973C"/>
</svg>
