<svg width="502" height="503" viewBox="0 0 502 503" fill="none" xmlns="http://www.w3.org/2000/svg">
<path d="M501 252C501 390.071 389.071 502 251 502C112.929 502 1 390.071 1 252C1 113.929 112.929 2 251 2C389.071 2 501 113.929 501 252Z" fill="#1014F4"/>
<path d="M143.001 28C123.801 33.6 99.6676 53.6667 90.0009 63L69.0005 80C46.667 104 1.79997 172.4 0.999969 254C0.199969 335.6 40.6666 392.667 61 411C63.6668 415.333 70.4004 422.6 76 417C82.9994 410 82 400 90.0009 354C98.0019 308 101.001 325 115 308C128.999 291 90.0009 285 90.0009 272C90.0009 259 69.0005 255 44.0005 254C19.0005 253 30.0005 237 24.0005 223C18.0005 209 31.0005 203 44.0005 203C57.0005 203 59.0005 181 69.0005 178C79.0005 175 80.0005 146 101.001 143C122.001 140 102.001 153 90.0009 187C78.0009 221 117.001 177 122.001 159C127.001 141 143.001 144 154.001 123C165.001 102 143.001 97 166.001 74C189.001 51 211.001 79 237.001 80C263.001 81 259.001 88 266.001 63C273.001 38 281.001 43 247.001 28C213.001 13 206.001 40 203.001 28C200.001 16 167.001 21 143.001 28Z" fill="#217921"/>
<path d="M281.501 189C272.701 192.6 271.167 190.5 271.501 189C270.167 189 265.4 189.2 257 190C246.5 191 254.5 193.5 235.5 197C216.5 200.5 254.5 186 262.5 168C260.5 158.5 257.5 170.5 242 177.5C226.5 184.5 240 175 242 168C244 161 248.5 164 254.5 156C260.501 148 255 152 254.5 142C254 132 261.5 140 267.5 149C273.5 158 281.501 158.5 281.501 156C281.501 153.5 278.5 142.5 286.5 134.5C294.5 126.5 286.5 128 281.501 125C276.501 122 281.501 120.5 286.5 112C290.344 105.465 294.497 105.18 296.294 105.907C292.86 104.36 285.42 100.96 281.501 99C276.501 96.5 293 89.5 286.5 81.5C280 73.5 307 70 315.5 62.5C322.3 56.5 330.334 60 333.5 62.5C334 67 332.2 76.2 321 77C307 78 315.5 80 321 93C326.5 106 321 98 315.5 112C310 126 318.5 124 310.5 131.5C302.5 139 306.5 137.5 300 158.5C290 170.5 300 162.5 313 164C326 165.5 314 168 321 186C328 204 322 189 321 197C320 205 305 194 296.5 186C288 178 292.501 184.5 281.501 189Z" fill="#217921"/>
<path d="M208.001 154.5C196.401 156.5 197.501 151.667 199.501 149C197.335 149 192.201 147.7 189.001 142.5C185.001 136 189.001 134 199.501 124.5C210.002 115 202.501 115 204.501 109.5C206.501 104 208.001 119 234.501 115C239.001 116 238.001 120.5 240.501 128C243.001 135.5 239.001 133.5 230.001 149C221.001 164.5 222.501 152 208.001 154.5Z" fill="#217921"/>
<path d="M228.535 218.839C227.881 218.006 227.565 217.196 227.499 216.5C227.805 217.166 228.153 217.95 228.535 218.839C231.167 222.197 239.27 225.923 258.499 224C288.499 221 275.999 224 309.999 224C343.999 224 335.999 230 346.999 220C357.999 210 366.999 222 362.499 209C357.999 196 352.999 206 358.999 187C366.499 165.5 361.999 144 370.999 155C379.999 166 379.499 158 379.499 172.5C379.499 187 372.999 188 387.499 194.5C413.899 202.5 413.499 209.833 409.999 212.5C419.499 216.167 438.999 220.6 440.999 209C443.499 194.5 449.499 197 453.499 192C457.499 187 469.999 195 460.499 175C450.999 155 451.999 155 446.499 135C440.999 115 436.499 104 432.999 104.5C429.999 117 416.999 106.5 424.999 119C432.999 131.5 433.999 130.5 435.999 140.5C437.999 150.5 433.999 147 429.499 167C424.999 187 420.999 199 412.999 187C404.999 175 409.499 190 398.499 162.5C387.499 135 371.499 149 379.499 122.5C387.499 96 371.999 99.5 387.499 88.5C399.899 79.7 407.665 68.8333 409.999 64.5L412.999 61.5L435.999 83.5L457.999 111.5L477.499 145L490.999 182.5L498.499 216.5L500.999 232.5V266L494.499 308L485.999 336.5L472.499 369C467.499 377.333 454.699 393.2 443.499 390C429.499 386 449.999 376 421.499 383C392.999 390 408.499 411.5 385.499 388.5C362.499 365.5 370.999 369.5 358.999 356.5C346.999 343.5 386.499 316.5 350.499 336.5C314.499 356.5 316.499 378.5 314.499 346C312.499 313.5 318.499 305 307.499 313C296.499 321 273.999 316 280.999 331C287.999 346 269.499 355 283.499 369C297.499 383 310.499 373.5 302.499 388.5C294.499 403.5 303.999 398.5 288.499 403.5C272.999 408.5 244.999 425.5 258.499 407C271.999 388.5 283.499 397.5 267.999 386C252.499 374.5 241.999 392 252.999 369C263.999 346 258.499 350.5 258.499 339C258.499 327.5 277.999 323 258.499 322.5C238.999 322 239.499 315.5 233.499 326C227.499 336.5 198.499 342.5 196.499 349.5C194.499 356.5 210.999 352.5 193.999 365C176.999 377.5 175.499 392 165.999 369C156.499 346 142.499 358 144.999 339C147.499 320 134.5 312.5 157.5 308C180.5 303.5 164.5 301.5 187.5 303C233.499 278 225.5 303.5 236 299.5C246.5 295.5 254 279.5 245 278.5C236 277.5 201.5 270 201.5 266C201.5 262 214 239.5 217 239.5C220 239.5 244 275 240 255C237.145 240.727 231.691 226.189 228.535 218.839Z" fill="#217921"/>
<path d="M119 449V463.5L129.5 470.5L179.5 491.5L235 502.5H257L301 497.5L320 491.5L344 483.5L364 475L383 463.5L411.5 444L430 425.5L432.5 421H402.5C394.5 416.5 397 421 387 425.5C377 430 378.5 425.5 367.5 431C356.5 436.5 363 431 344 425.5C325 420 328 428.5 301 431C274 433.5 289.5 436 264 428.5C238.5 421 257 431.5 199.5 421C175 406 185 413 171.5 410C158 407 163.5 412.5 136.5 410C114.9 408 121.167 413.833 127 417L115 436L119 449Z" fill="#217921"/>
<path d="M246 8.5C261 6.5 257 6.5 261 6L270.5 1.5L311.5 8.5L352.5 23L362 30L376 37C376 38.5 374.2 41.5 367 41.5C358 41.5 360.5 44.5 348.5 49.5C336.5 54.5 333.5 49.5 318.5 41.5C303.5 33.5 312.5 39 281.5 37C250.5 35 272 33 261 30C249.999 27 257 24.5 246 20C234.999 15.5 237 20 225 20C213 20 220.5 17.5 225 8.5C229.5 -0.499998 231 10.5 246 8.5Z" fill="white"/>
<path d="M296.294 105.907C292.86 104.36 285.42 100.96 281.501 99C276.501 96.5 293 89.5 286.5 81.5C280 73.5 307 70 315.5 62.5C322.3 56.5 330.334 60 333.5 62.5C334 67 332.2 76.2 321 77C307 78 315.5 80 321 93C326.5 106 321 98 315.5 112C310 126 318.5 124 310.5 131.5C302.5 139 306.5 137.5 300 158.5C290 170.5 300 162.5 313 164C326 165.5 314 168 321 186C328 204 322 189 321 197C320 205 305 194 296.5 186C288 178 292.501 184.5 281.501 189C272.701 192.6 271.167 190.5 271.501 189C270.167 189 265.4 189.2 257 190C246.5 191 254.5 193.5 235.5 197C216.5 200.5 254.5 186 262.5 168C260.5 158.5 257.5 170.5 242 177.5C226.5 184.5 240 175 242 168C244 161 248.5 164 254.5 156C260.501 148 255 152 254.5 142C254 132 261.5 140 267.5 149C273.5 158 281.501 158.5 281.501 156C281.501 153.5 278.5 142.5 286.5 134.5C294.5 126.5 286.5 128 281.501 125C276.501 122 281.501 120.5 286.5 112C290.344 105.465 294.497 105.18 296.294 105.907ZM296.294 105.907C296.364 105.939 296.433 105.97 296.5 106C296.435 105.968 296.366 105.936 296.294 105.907ZM228.535 218.839C227.881 218.006 227.565 217.196 227.499 216.5C227.805 217.166 228.153 217.95 228.535 218.839ZM228.535 218.839C231.167 222.197 239.27 225.923 258.499 224C288.499 221 275.999 224 309.999 224C343.999 224 335.999 230 346.999 220C357.999 210 366.999 222 362.499 209C357.999 196 352.999 206 358.999 187C366.499 165.5 361.999 144 370.999 155C379.999 166 379.499 158 379.499 172.5C379.499 187 372.999 188 387.499 194.5C413.899 202.5 413.499 209.833 409.999 212.5C419.499 216.167 438.999 220.6 440.999 209C443.499 194.5 449.499 197 453.499 192C457.499 187 469.999 195 460.499 175C450.999 155 451.999 155 446.499 135C440.999 115 436.499 104 432.999 104.5C429.999 117 416.999 106.5 424.999 119C432.999 131.5 433.999 130.5 435.999 140.5C437.999 150.5 433.999 147 429.499 167C424.999 187 420.999 199 412.999 187C404.999 175 409.499 190 398.499 162.5C387.499 135 371.499 149 379.499 122.5C387.499 96 371.999 99.5 387.499 88.5C399.899 79.7 407.665 68.8333 409.999 64.5L412.999 61.5L435.999 83.5L457.999 111.5L477.499 145L490.999 182.5L498.499 216.5L500.999 232.5V266L494.499 308L485.999 336.5L472.499 369C467.499 377.333 454.699 393.2 443.499 390C429.499 386 449.999 376 421.499 383C392.999 390 408.499 411.5 385.499 388.5C362.499 365.5 370.999 369.5 358.999 356.5C346.999 343.5 386.499 316.5 350.499 336.5C314.499 356.5 316.499 378.5 314.499 346C312.499 313.5 318.499 305 307.499 313C296.499 321 273.999 316 280.999 331C287.999 346 269.499 355 283.499 369C297.499 383 310.499 373.5 302.499 388.5C294.499 403.5 303.999 398.5 288.499 403.5C272.999 408.5 244.999 425.5 258.499 407C271.999 388.5 283.499 397.5 267.999 386C252.499 374.5 241.999 392 252.999 369C263.999 346 258.499 350.5 258.499 339C258.499 327.5 277.999 323 258.499 322.5C238.999 322 239.499 315.5 233.499 326C227.499 336.5 198.499 342.5 196.499 349.5C194.499 356.5 210.999 352.5 193.999 365C176.999 377.5 175.499 392 165.999 369C156.499 346 142.499 358 144.999 339C147.499 320 134.5 312.5 157.5 308C180.5 303.5 164.5 301.5 187.5 303C233.499 278 225.5 303.5 236 299.5C246.5 295.5 254 279.5 245 278.5C236 277.5 201.5 270 201.5 266C201.5 262 214 239.5 217 239.5C220 239.5 244 275 240 255C237.145 240.727 231.691 226.189 228.535 218.839ZM501 252C501 390.071 389.071 502 251 502C112.929 502 1 390.071 1 252C1 113.929 112.929 2 251 2C389.071 2 501 113.929 501 252ZM90.0009 63C99.6676 53.6667 123.801 33.6 143.001 28C167.001 21 200.001 16 203.001 28C206.001 40 213.001 13 247.001 28C281.001 43 273.001 38 266.001 63C259.001 88 263.001 81 237.001 80C211.001 79 189.001 51 166.001 74C143.001 97 165.001 102 154.001 123C143.001 144 127.001 141 122.001 159C117.001 177 78.0009 221 90.0009 187C102.001 153 122.001 140 101.001 143C80.0005 146 79.0005 175 69.0005 178C59.0005 181 57.0005 203 44.0005 203C31.0005 203 18.0005 209 24.0005 223C30.0005 237 19.0005 253 44.0005 254C69.0005 255 90.0009 259 90.0009 272C90.0009 285 128.999 291 115 308C101.001 325 98.0019 308 90.0009 354C82 400 82.9994 410 76 417C70.4004 422.6 63.6668 415.333 61 411C40.6666 392.667 0.199969 335.6 0.999969 254C1.79997 172.4 46.667 104 69.0005 80L90.0009 63ZM199.501 149C197.501 151.667 196.401 156.5 208.001 154.5C222.501 152 221.001 164.5 230.001 149C239.001 133.5 243.001 135.5 240.501 128C238.001 120.5 239.001 116 234.501 115C208.001 119 206.501 104 204.501 109.5C202.501 115 210.002 115 199.501 124.5C189.001 134 185.001 136 189.001 142.5C192.201 147.7 197.335 149 199.501 149ZM119 463.5V449L115 436L127 417C121.167 413.833 114.9 408 136.5 410C163.5 412.5 158 407 171.5 410C185 413 175 406 199.5 421C257 431.5 238.5 421 264 428.5C289.5 436 274 433.5 301 431C328 428.5 325 420 344 425.5C363 431 356.5 436.5 367.5 431C378.5 425.5 377 430 387 425.5C397 421 394.5 416.5 402.5 421H432.5L430 425.5L411.5 444L383 463.5L364 475L344 483.5L320 491.5L301 497.5L257 502.5H235L179.5 491.5L129.5 470.5L119 463.5ZM261 6C257 6.5 261 6.5 246 8.5C231 10.5 229.5 -0.499998 225 8.5C220.5 17.5 213 20 225 20C237 20 234.999 15.5 246 20C257 24.5 249.999 27 261 30C272 33 250.5 35 281.5 37C312.5 39 303.5 33.5 318.5 41.5C333.5 49.5 336.5 54.5 348.5 49.5C360.5 44.5 358 41.5 367 41.5C374.2 41.5 376 38.5 376 37L362 30L352.5 23L311.5 8.5L270.5 1.5L261 6Z" stroke="white"/>
</svg>
